<svg width="24" height="24" viewBox="0 0 24 24" fill="none" xmlns="http://www.w3.org/2000/svg">
<path d="M12 1.66666C6.11998 1.66666 1.33331 5.85332 1.33331 11C1.33331 16.1467 6.11998 20.3333 12 20.3333C13.1001 20.3321 14.1948 20.1795 15.2533 19.88L18.94 22.2267C19.0406 22.2912 19.1568 22.3275 19.2763 22.3318C19.3958 22.336 19.5142 22.3081 19.6192 22.2508C19.7242 22.1936 19.8118 22.1091 19.873 22.0063C19.9341 21.9036 19.9664 21.7862 19.9666 21.6667V17.18C20.8008 16.3798 21.4665 15.4208 21.9244 14.3594C22.3824 13.2981 22.6234 12.1559 22.6333 11C22.6666 5.85332 17.88 1.66666 12 1.66666ZM18.86 16.4067C18.793 16.4688 18.7394 16.5441 18.7027 16.6278C18.666 16.7115 18.6469 16.8019 18.6466 16.8933V20.4533L15.7266 18.5933C15.6452 18.5418 15.5535 18.5086 15.458 18.496C15.3625 18.4833 15.2654 18.4915 15.1733 18.52C14.1458 18.8391 13.0759 19.0009 12 19C6.85331 19 2.66665 15.4133 2.66665 11C2.66665 6.58666 6.85331 2.99999 12 2.99999C17.1466 2.99999 21.3333 6.58666 21.3333 11C21.3181 12.0234 21.0904 13.0324 20.6646 13.9632C20.2389 14.8939 19.6243 15.726 18.86 16.4067Z" fill="#B3B3B3"/>
<path d="M16.6667 10.3333H7.33335C7.15654 10.3333 6.98697 10.4036 6.86195 10.5286C6.73693 10.6536 6.66669 10.8232 6.66669 11C6.66669 11.1768 6.73693 11.3464 6.86195 11.4714C6.98697 11.5964 7.15654 11.6667 7.33335 11.6667H16.6667C16.8435 11.6667 17.0131 11.5964 17.1381 11.4714C17.2631 11.3464 17.3334 11.1768 17.3334 11C17.3334 10.8232 17.2631 10.6536 17.1381 10.5286C17.0131 10.4036 16.8435 10.3333 16.6667 10.3333Z" fill="#B3B3B3"/>
<path d="M14.5 13.6667H9.49998C9.32317 13.6667 9.1536 13.7369 9.02858 13.8619C8.90355 13.987 8.83331 14.1565 8.83331 14.3333C8.83331 14.5101 8.90355 14.6797 9.02858 14.8047C9.1536 14.9298 9.32317 15 9.49998 15H14.5C14.6768 15 14.8464 14.9298 14.9714 14.8047C15.0964 14.6797 15.1666 14.5101 15.1666 14.3333C15.1666 14.1565 15.0964 13.987 14.9714 13.8619C14.8464 13.7369 14.6768 13.6667 14.5 13.6667Z" fill="#B3B3B3"/>
<path d="M7.52 8.33333H16.48C16.6568 8.33333 16.8264 8.2631 16.9514 8.13807C17.0764 8.01305 17.1467 7.84348 17.1467 7.66667C17.1467 7.48986 17.0764 7.32029 16.9514 7.19526C16.8264 7.07024 16.6568 7 16.48 7H7.52C7.34319 7 7.17362 7.07024 7.04859 7.19526C6.92357 7.32029 6.85333 7.48986 6.85333 7.66667C6.85333 7.84348 6.92357 8.01305 7.04859 8.13807C7.17362 8.2631 7.34319 8.33333 7.52 8.33333Z" fill="#B3B3B3"/>
</svg>
