<svg width="48" height="42" viewBox="0 0 48 42" fill="none" xmlns="http://www.w3.org/2000/svg">
<path d="M42.6667 9.33333V4.66667C42.6667 2.093 40.5737 0 38 0H7.66669C3.80735 0 0.666687 3.14067 0.666687 7V35C0.666687 40.1357 4.85269 42 7.66669 42H42.6667C45.2404 42 47.3334 39.907 47.3334 37.3333V14C47.3334 11.4263 45.2404 9.33333 42.6667 9.33333ZM38 30.3333H33.3334V21H38V30.3333ZM7.66669 9.33333C7.0659 9.30646 6.49863 9.04888 6.083 8.61424C5.66736 8.1796 5.4354 7.60139 5.4354 7C5.4354 6.39861 5.66736 5.8204 6.083 5.38576C6.49863 4.95112 7.0659 4.69354 7.66669 4.66667H38V9.33333H7.66669Z" fill="#53B7FF"/>
</svg>
