<svg width="80" height="80" viewBox="0 0 80 80" fill="none" xmlns="http://www.w3.org/2000/svg">
<rect width="80" height="80" rx="8" fill="#BBFFBA"/>
<path d="M23.4444 20C22.2657 20 21.1352 20.4683 20.3017 21.3017C19.4683 22.1352 19 23.2657 19 24.4444V55.5556C19 56.7343 19.4683 57.8648 20.3017 58.6983C21.1352 59.5317 22.2657 60 23.4444 60H54.5556C55.7343 60 56.8648 59.5317 57.6982 58.6983C58.5317 57.8648 59 56.7343 59 55.5556V50.4889C59.6717 50.1011 60.2303 49.5442 60.6201 48.8737C61.01 48.2032 61.2175 47.4423 61.2222 46.6667V33.3333C61.2175 32.5577 61.01 31.7968 60.6201 31.1263C60.2303 30.4558 59.6717 29.8989 59 29.5111V24.4444C59 23.2657 58.5317 22.1352 57.6982 21.3017C56.8648 20.4683 55.7343 20 54.5556 20H23.4444ZM23.4444 24.4444H54.5556V28.8889H41.2222C40.0435 28.8889 38.913 29.3571 38.0795 30.1906C37.246 31.0241 36.7778 32.1546 36.7778 33.3333V46.6667C36.7778 47.8454 37.246 48.9759 38.0795 49.8094C38.913 50.6429 40.0435 51.1111 41.2222 51.1111H54.5556V55.5556H23.4444V24.4444ZM41.2222 33.3333H56.7778V46.6667H41.2222V33.3333ZM47.8889 36.6667C47.0048 36.6667 46.157 37.0179 45.5319 37.643C44.9067 38.2681 44.5556 39.1159 44.5556 40C44.5556 40.8841 44.9067 41.7319 45.5319 42.357C46.157 42.9821 47.0048 43.3333 47.8889 43.3333C48.7729 43.3333 49.6208 42.9821 50.2459 42.357C50.871 41.7319 51.2222 40.8841 51.2222 40C51.2222 39.1159 50.871 38.2681 50.2459 37.643C49.6208 37.0179 48.7729 36.6667 47.8889 36.6667Z" fill="#30E12C"/>
</svg>
