<svg width="80" height="80" viewBox="0 0 80 80" fill="none" xmlns="http://www.w3.org/2000/svg">
<rect width="80" height="80" rx="8" fill="#F7C5FF"/>
<path d="M38 20V24.14C34.4802 24.587 31.2088 26.1911 28.6999 28.6999C26.1911 31.2088 24.587 34.4802 24.14 38H20V42H24.14C24.587 45.5198 26.1911 48.7912 28.6999 51.3001C31.2088 53.8089 34.4802 55.413 38 55.86V60H42V55.86C45.5198 55.413 48.7912 53.8089 51.3001 51.3001C53.8089 48.7912 55.413 45.5198 55.86 42H60V38H55.86C55.413 34.4802 53.8089 31.2088 51.3001 28.6999C48.7912 26.1911 45.5198 24.587 42 24.14V20H38ZM38 28.16V32H42V28.18C47 29 51 33 51.84 38H48V42H51.82C51 47 47 51 42 51.84V48H38V51.82C33 51 29 47 28.16 42H32V38H28.18C29 33 33 29 38 28.16ZM40 38C39.4696 38 38.9609 38.2107 38.5858 38.5858C38.2107 38.9609 38 39.4696 38 40C38 40.5304 38.2107 41.0391 38.5858 41.4142C38.9609 41.7893 39.4696 42 40 42C40.5304 42 41.0391 41.7893 41.4142 41.4142C41.7893 41.0391 42 40.5304 42 40C42 39.4696 41.7893 38.9609 41.4142 38.5858C41.0391 38.2107 40.5304 38 40 38Z" fill="#E64EFF"/>
</svg>
