<svg width="56" height="56" viewBox="0 0 56 56" fill="none" xmlns="http://www.w3.org/2000/svg">
<circle cx="28" cy="28" r="28" fill="white"/>
<path d="M25.3333 40H30.6667C30.6667 41.4667 29.4667 42.6667 28 42.6667C26.5333 42.6667 25.3333 41.4667 25.3333 40ZM40 37.3333V38.6667H16V37.3333L18.6667 34.6667V26.6667C18.6667 22.5333 21.3333 18.9333 25.3333 17.7333V17.3333C25.3333 15.8667 26.5333 14.6667 28 14.6667C29.4667 14.6667 30.6667 15.8667 30.6667 17.3333V17.7333C34.6667 18.9333 37.3333 22.5333 37.3333 26.6667V34.6667L40 37.3333ZM34.6667 26.6667C34.6667 22.9333 31.7333 20 28 20C24.2667 20 21.3333 22.9333 21.3333 26.6667V36H34.6667V26.6667Z" fill="black"/>
</svg>
