<svg width="161" height="53" viewBox="0 0 161 53" fill="none" xmlns="http://www.w3.org/2000/svg">
<path d="M23.6469 14.8607C6.18991 16.8683 1 41.9624 1 41.9624V52H160C160 52 147.733 10.3478 133.107 7.8344C118.481 5.32096 113.291 24.3875 102.911 24.8943C92.5312 25.4012 94.4184 0.021448 84.5104 1.02924C74.6024 2.03704 81.2077 39.453 61.3917 41.9624C41.5757 44.4718 41.1039 12.8532 23.6469 14.8607Z" fill="url(#paint0_linear_150_8)"/>
<path d="M1 41.9624C1.48964 42.0636 1.48963 42.0637 1.48963 42.0637C1.48966 42.0635 1.48969 42.0634 1.48975 42.0631C1.48986 42.0626 1.49006 42.0616 1.49033 42.0603C1.49088 42.0577 1.49175 42.0536 1.49294 42.048C1.49532 42.0367 1.49899 42.0196 1.50397 41.9967C1.51394 41.9509 1.52918 41.8821 1.54989 41.7918C1.59132 41.6113 1.65464 41.3447 1.74159 41.0037C1.91551 40.3219 2.18378 39.3433 2.56011 38.1618C3.31322 35.7973 4.49669 32.6277 6.21826 29.3997C9.67341 22.921 15.2252 16.3325 23.704 15.3575L23.5898 14.364C14.6116 15.3965 8.83994 22.3588 5.3359 28.9291C3.57786 32.2255 2.3728 35.4549 1.60727 37.8583C1.22427 39.0607 0.950709 40.0583 0.77261 40.7566C0.683549 41.1058 0.618327 41.3803 0.575205 41.5683C0.553643 41.6623 0.537604 41.7346 0.52687 41.7839C0.521503 41.8086 0.517462 41.8275 0.514719 41.8404C0.513348 41.8468 0.512302 41.8518 0.511577 41.8553C0.511214 41.857 0.510932 41.8584 0.51073 41.8593C0.510629 41.8598 0.510537 41.8603 0.510486 41.8605C0.510414 41.8608 0.510362 41.8611 1 41.9624ZM23.704 15.3575C27.8878 14.8763 31.0505 16.3974 33.7799 18.9655C36.5347 21.5574 38.8136 25.1818 41.2156 28.8725C43.5987 32.5342 46.0988 36.2529 49.2694 38.8886C52.4651 41.545 56.3454 43.1054 61.4545 42.4584L61.3289 41.4663C56.53 42.074 52.9203 40.6231 49.9087 38.1196C46.8721 35.5953 44.4477 32.0054 42.0537 28.327C39.6786 24.6777 37.3279 20.9307 34.4652 18.2372C31.5771 15.5198 28.1345 13.8414 23.5898 14.364L23.704 15.3575ZM61.4545 42.4584C66.5966 41.8072 70.0191 38.8801 72.3995 34.9066C74.7674 30.9538 76.1223 25.9394 77.1558 21.0358C78.1979 16.0915 78.9076 11.3039 79.9845 7.63826C80.5209 5.81238 81.1341 4.32206 81.8914 3.26588C82.6403 2.22149 83.5044 1.63415 84.561 1.52668L84.4598 0.531809C83.0394 0.676286 81.9425 1.47865 81.0788 2.68314C80.2235 3.87585 79.5723 5.49359 79.025 7.35638C77.9346 11.0681 77.1994 15.9803 76.1773 20.8296C75.1466 25.7196 73.818 30.5927 71.5416 34.3927C69.2777 38.1719 66.0948 40.8628 61.3289 41.4663L61.4545 42.4584ZM84.561 1.52668C86.7635 1.30264 88.3488 2.51338 89.6805 4.66722C91.022 6.83694 92.0211 9.83579 93.0597 12.9329C94.0864 15.9947 95.1511 19.1504 96.6266 21.5032C98.1114 23.8708 100.084 25.533 102.935 25.3938L102.887 24.3949C100.548 24.5091 98.8641 23.1889 97.4738 20.9719C96.0742 18.7401 95.0453 15.7088 94.0078 12.615C92.9822 9.5565 91.9467 6.43105 90.531 4.14134C89.1056 1.83576 87.2113 0.251944 84.4598 0.531809L84.561 1.52668ZM102.935 25.3938C105.688 25.2593 108.062 23.8944 110.272 22.0449C112.472 20.2043 114.588 17.8127 116.774 15.5816C121.19 11.0725 125.979 7.1169 133.022 8.32717L133.192 7.34162C125.608 6.03845 120.489 10.3594 116.059 14.8819C113.821 17.1667 111.78 19.4796 109.63 21.278C107.492 23.0674 105.324 24.2759 102.887 24.3949L102.935 25.3938ZM133.022 8.32717C136.479 8.92129 139.888 11.8579 143.08 16.0964C146.255 20.3131 149.142 25.7182 151.583 31.0673C154.022 36.4126 156.007 41.6824 157.383 45.6175C158.07 47.5846 158.605 49.217 158.968 50.357C159.149 50.9269 159.288 51.3738 159.38 51.6777C159.427 51.8297 159.462 51.946 159.485 52.0241C159.497 52.0631 159.506 52.0926 159.512 52.1122C159.515 52.122 159.517 52.1294 159.518 52.1342C159.519 52.1367 159.52 52.1385 159.52 52.1396C159.52 52.1402 159.52 52.1406 159.52 52.1409C159.52 52.1412 159.52 52.1413 160 52C160.48 51.8587 160.48 51.8585 160.479 51.8581C160.479 51.8578 160.479 51.8572 160.479 51.8566C160.479 51.8552 160.478 51.8532 160.477 51.8506C160.476 51.8453 160.473 51.8376 160.47 51.8274C160.464 51.807 160.455 51.7767 160.443 51.7368C160.419 51.6571 160.384 51.5392 160.337 51.3855C160.243 51.0781 160.103 50.6276 159.921 50.0537C159.556 48.9061 159.018 47.2647 158.327 45.2876C156.945 41.3344 154.949 36.0341 152.493 30.6522C150.039 25.2741 147.117 19.7948 143.879 15.4948C140.657 11.2166 137.047 8.00422 133.192 7.34162L133.022 8.32717Z" fill="#FFB035"/>
<defs>
<linearGradient id="paint0_linear_150_8" x1="80.5" y1="1" x2="80.5" y2="52" gradientUnits="userSpaceOnUse">
<stop stop-color="#F8CF6A"/>
<stop offset="1" stop-color="#F8CF6A" stop-opacity="0"/>
</linearGradient>
</defs>
</svg>
