<svg width="33" height="32" viewBox="0 0 33 32" fill="none" xmlns="http://www.w3.org/2000/svg">
<path d="M16.6969 11.3437C16.6735 11.3139 16.6436 11.2897 16.6095 11.2731C16.5754 11.2565 16.5379 11.2478 16.5 11.2478C16.4621 11.2478 16.4246 11.2565 16.3905 11.2731C16.3564 11.2897 16.3265 11.3139 16.3031 11.3437L12.8031 15.7719C12.675 15.9344 12.7906 16.175 13 16.175H15.3156L15.3156 26.75C15.3156 26.8875 15.4281 27 15.5656 27H17.4406C17.5781 27 17.6906 26.8875 17.6906 26.75V16.1781H20C20.2094 16.1781 20.325 15.9375 20.1969 15.775L16.6969 11.3437ZM5.0625 12.4375L6.9375 12.4375C7.075 12.4375 7.1875 12.325 7.1875 12.1875V7.375L25.8125 7.375L25.8125 12.1875C25.8125 12.325 25.925 12.4375 26.0625 12.4375H27.9375C28.075 12.4375 28.1875 12.325 28.1875 12.1875V6C28.1875 5.44687 27.7406 5 27.1875 5L5.8125 5C5.25937 5 4.8125 5.44687 4.8125 6V12.1875C4.8125 12.325 4.925 12.4375 5.0625 12.4375Z" fill="black"/>
</svg>
