<svg width="40" height="40" viewBox="0 0 40 40" fill="none" xmlns="http://www.w3.org/2000/svg">
<g clip-path="url(#clip0_1_631)">
<g clip-path="url(#clip1_1_631)">
<path d="M24.1117 31.255L26.865 38.9817H28.895L25.9883 30.8833C25.3725 31.0517 24.7453 31.1753 24.1117 31.2533V31.255ZM0 38.9833H9.17667L12.1467 29.6317H3.19333C2.043 32.7178 0.978145 35.8351 0 38.98L0 38.9833ZM12.0917 17.9233L17.39 13.5C18.2567 11.1517 19.1633 8.8 20.1067 6.79667C20.575 7.865 21.0217 8.93334 21.49 10.07C23.5333 8.39167 24.8767 7.47834 24.945 7.43334L24.9717 7.415C25.8106 6.88139 26.7286 6.4837 27.6917 6.23667C26.8951 4.48524 26.0717 2.74615 25.2217 1.02H14.94C14.0833 2.67 10.8867 9.27167 7.14667 18.35H10.93C11.3584 18.3668 11.776 18.2134 12.0917 17.9233V17.9233ZM33.6033 25.27C32.2387 27.4828 30.2142 29.2118 27.815 30.2133L30.9317 38.98H40C38.1883 33.48 36.2433 28.5167 34.42 23.8667C34.165 24.3717 33.8933 24.8 33.6033 25.2683V25.27ZM30.915 10.4917C31.1767 10.4917 31.42 10.5517 31.6417 10.6583C31.5967 10.6517 31.5517 10.6417 31.5067 10.6417C31.2488 10.6412 31.0013 10.7431 30.8185 10.925C30.6357 11.1068 30.5325 11.3538 30.5317 11.6117C30.5319 11.7393 30.5573 11.8655 30.6065 11.9833C30.6557 12.101 30.7276 12.2078 30.8182 12.2977C30.9088 12.3875 31.0163 12.4585 31.1344 12.5067C31.2526 12.5549 31.3791 12.5792 31.5067 12.5783C31.6338 12.5786 31.7598 12.5537 31.8774 12.5053C31.9949 12.4568 32.1018 12.3857 32.1919 12.2959C32.2819 12.2061 32.3535 12.0995 32.4023 11.9821C32.4512 11.8647 32.4764 11.7388 32.4767 11.6117C32.4767 11.5783 32.4733 11.55 32.47 11.5217C32.5546 11.7244 32.5982 11.942 32.5983 12.1617C32.5983 13.0833 31.845 13.8333 30.915 13.8333C30.4703 13.8342 30.0434 13.6588 29.7278 13.3454C29.4123 13.032 29.2339 12.6064 29.2317 12.1617C29.2317 11.235 29.9867 10.4917 30.915 10.4917V10.4917ZM21.515 29.3533C23.7317 29.3533 29.0217 28.7917 31.8833 24.1933C34.75 19.5933 35.75 12.2967 35.75 12.2967L38.8867 10.81C39.0833 10.71 39.0317 10.3717 38.7917 10.3717H35.41C34.88 9.54667 33.0433 7.78834 30.34 7.78834C28.735 7.78834 27.33 8.24167 26.07 9.06167C26.07 9.06167 24.235 10.3117 21.565 12.6083L13.3917 19.4083C12.7617 19.935 11.9917 20.275 10.925 20.275H0.643333C0.353333 20.275 0.451667 20.52 0.498333 20.66C1.22333 22.87 3.15833 24.8417 6.53667 24.8417L4.12333 27.3267C4.02833 27.4217 4.02833 27.7033 4.26833 27.7033H13.4433C20.0733 27.7033 24.15 24.8017 26.83 20.78C27.06 20.435 27.275 20.0683 27.48 19.7133C27.58 19.7617 27.5917 19.8583 27.5433 19.9517C26.8667 21.585 25.1767 24.8933 22.0883 26.8617C21.0217 27.4833 20.685 27.6767 19.1883 28.25C19.085 28.295 19.0433 28.4583 19.0917 28.6L22.805 38.9817H24.8317L21.4283 29.3533H21.52H21.515Z" fill="black"/>
</g>
</g>
<defs>
<clipPath id="clip0_1_631">
<rect width="40" height="40" fill="white"/>
</clipPath>
<clipPath id="clip1_1_631">
<rect width="40" height="40" fill="white"/>
</clipPath>
</defs>
</svg>
