<svg width="40" height="40" viewBox="0 0 40 40" fill="none" xmlns="http://www.w3.org/2000/svg">
<path d="M18.975 25.4583C20.8266 25.4517 24.875 25.4367 24.8283 22.8617C24.7833 20.2283 20.895 20.3867 19 20.465C18.7883 20.4733 18.6 20.4817 18.4466 20.4833L18.5333 25.4617C18.6583 25.4583 18.8083 25.4583 18.975 25.4583V25.4583ZM18.7783 18.2033C20.3233 18.2017 23.695 18.1983 23.655 15.8567C23.6116 13.4617 20.3733 13.6033 18.7916 13.6733C18.6133 13.6817 18.4583 13.6883 18.3283 13.69L18.4066 18.205L18.7783 18.2033Z" fill="black"/>
<path fill-rule="evenodd" clip-rule="evenodd" d="M15.16 39.4017C25.8767 42.0733 36.73 35.5517 39.4017 24.8383C42.0733 14.1233 35.55 3.27 24.8333 0.599999C14.1233 -2.07333 3.26999 4.45 0.59999 15.1667C-2.07168 25.88 4.44999 36.7333 15.1617 39.4033L15.16 39.4017ZM22.2967 11.035C25.22 11.2417 27.5467 12.0983 27.8517 14.7717C28.0783 16.7283 27.2783 17.92 25.98 18.61C28.1467 19.09 29.5217 20.3483 29.305 23.2283C29.0367 26.8033 26.3917 27.8083 22.595 28.0917L22.6583 31.8417L20.3983 31.8833L20.3333 28.1833C19.7483 28.1933 19.1483 28.2 18.5267 28.1967L18.5933 31.9133L16.3333 31.9533L16.2667 28.1967L15.6283 28.2017C15.305 28.2033 14.9783 28.205 14.6517 28.2117L11.7083 28.2617L12.11 25.555C12.11 25.555 13.7833 25.5517 13.7533 25.5267C14.3933 25.5133 14.555 25.0517 14.59 24.7617L14.4883 18.8333L14.65 18.83H14.7267C14.647 18.8209 14.5668 18.817 14.4867 18.8183L14.4133 14.585C14.3183 14.1283 14.0117 13.6017 13.0967 13.6183C13.1217 13.585 11.4533 13.6467 11.4533 13.6467L11.41 11.2333L14.53 11.18V11.1917C14.9983 11.1833 15.48 11.1667 15.9683 11.1483L15.905 7.43333L18.165 7.395L18.2283 11.035C18.8317 11.0133 19.4383 10.99 20.0333 10.98L19.97 7.36333L22.2317 7.32333L22.2967 11.0383V11.035Z" fill="black"/>
</svg>
