<svg width="40" height="40" viewBox="0 0 40 40" fill="none" xmlns="http://www.w3.org/2000/svg">
<rect width="40" height="40" rx="8" fill="#F3F4F8"/>
<path d="M14 15.91V24C14 25.5913 14.6321 27.1174 15.7574 28.2426C16.8826 29.3679 18.4087 30 20 30C21.5913 30 23.1174 29.3679 24.2426 28.2426C25.3679 27.1174 26 25.5913 26 24V14C26 12.9391 25.5786 11.9217 24.8284 11.1716C24.0783 10.4214 23.0609 10 22 10C20.9391 10 19.9217 10.4214 19.1716 11.1716C18.4214 11.9217 18 12.9391 18 14V23.182C18 23.4446 18.0517 23.7047 18.1522 23.9474C18.2528 24.19 18.4001 24.4105 18.5858 24.5962C18.7715 24.7819 18.992 24.9292 19.2346 25.0298C19.4773 25.1303 19.7374 25.182 20 25.182V25.182C20.5304 25.182 21.0391 24.9713 21.4142 24.5962C21.7893 24.2211 22 23.7124 22 23.182V16" stroke="#B3B3B3" stroke-width="2" stroke-linecap="round" stroke-linejoin="round"/>
</svg>
