<svg width="40" height="40" viewBox="0 0 40 40" fill="none" xmlns="http://www.w3.org/2000/svg">
<rect width="40" height="40" rx="8" fill="#D8EEFF"/>
<path d="M27.88 26.47C28.32 25.77 28.58 24.96 28.58 24.08C28.58 21.59 26.57 19.58 24.08 19.58C21.59 19.58 19.58 21.59 19.58 24.08C19.58 26.57 21.59 28.58 24.07 28.58C24.95 28.58 25.77 28.32 26.46 27.88L29.58 31L31 29.58L27.88 26.47ZM24.08 26.58C23.417 26.58 22.7811 26.3166 22.3122 25.8478C21.8434 25.3789 21.58 24.743 21.58 24.08C21.58 23.417 21.8434 22.7811 22.3122 22.3122C22.7811 21.8434 23.417 21.58 24.08 21.58C24.743 21.58 25.3789 21.8434 25.8478 22.3122C26.3166 22.7811 26.58 23.417 26.58 24.08C26.58 24.743 26.3166 25.3789 25.8478 25.8478C25.3789 26.3166 24.743 26.58 24.08 26.58ZM23.72 18.08C22.98 18.1 22.27 18.26 21.62 18.53L21.07 17.7L17.27 23.88L14.26 20.36L10.63 26.17L9 25L14 17L17 20.5L21 14L23.72 18.08ZM26.31 18.58C25.67 18.3 24.98 18.13 24.26 18.09L29.38 10L31 11.18L26.31 18.58Z" fill="#53B7FF"/>
</svg>
