<svg width="255" height="100" viewBox="0 0 255 100" fill="none" xmlns="http://www.w3.org/2000/svg">
<path d="M7.16797 21.8662V29H5.99121V23.2627L4.24805 23.8535V22.8818L7.02637 21.8662H7.16797ZM10.874 25.6943L9.93652 25.4648L10.3223 21.8906H14.1553V22.8867H11.2988L11.1035 24.6299C11.2142 24.5648 11.3672 24.5013 11.5625 24.4395C11.7578 24.3743 11.9808 24.3418 12.2314 24.3418C12.5667 24.3418 12.8662 24.3971 13.1299 24.5078C13.3968 24.6152 13.623 24.7731 13.8086 24.9814C13.9941 25.1865 14.1357 25.4372 14.2334 25.7334C14.3311 26.0264 14.3799 26.3568 14.3799 26.7246C14.3799 27.0534 14.3311 27.361 14.2334 27.6475C14.139 27.9339 13.9958 28.1862 13.8037 28.4043C13.6117 28.6224 13.3691 28.7933 13.0762 28.917C12.7865 29.0374 12.443 29.0977 12.0459 29.0977C11.7497 29.0977 11.4648 29.0553 11.1914 28.9707C10.9212 28.8828 10.6787 28.7542 10.4639 28.585C10.249 28.4124 10.0765 28.2008 9.94629 27.9502C9.81608 27.6963 9.74121 27.4049 9.72168 27.0762H10.874C10.9033 27.3073 10.9668 27.5042 11.0645 27.667C11.1654 27.8265 11.2988 27.9486 11.4648 28.0332C11.6309 28.1178 11.8229 28.1602 12.041 28.1602C12.2396 28.1602 12.4105 28.126 12.5537 28.0576C12.6969 27.986 12.8158 27.8851 12.9102 27.7549C13.0078 27.6214 13.0794 27.4652 13.125 27.2861C13.1738 27.1071 13.1982 26.9085 13.1982 26.6904C13.1982 26.4821 13.1706 26.2917 13.1152 26.1191C13.0632 25.9466 12.9834 25.7969 12.876 25.6699C12.7718 25.543 12.64 25.4453 12.4805 25.377C12.321 25.3053 12.137 25.2695 11.9287 25.2695C11.6488 25.2695 11.4339 25.3102 11.2842 25.3916C11.1377 25.473 11.001 25.5739 10.874 25.6943ZM16.5771 21.5V29H15.3955V21.5H16.5771ZM19.8584 23.7168L17.5586 26.2656L16.2988 27.5547L15.9912 26.5586L16.9434 25.3818L18.4375 23.7168H19.8584ZM18.6914 29L16.9775 26.5195L17.7197 25.6943L20.0537 29H18.6914Z" fill="#B3B3B3"/>
<path d="M7.16797 46.9662V54.1H5.99121V48.3627L4.24805 48.9535V47.9818L7.02637 46.9662H7.16797ZM14.2725 49.9496V51.1117C14.2725 51.6684 14.2171 52.1436 14.1064 52.5375C13.999 52.9281 13.8428 53.2455 13.6377 53.4897C13.4326 53.7338 13.1868 53.9128 12.9004 54.0268C12.6172 54.1407 12.2998 54.1977 11.9482 54.1977C11.6683 54.1977 11.4079 54.1619 11.167 54.0902C10.9294 54.0186 10.7145 53.9063 10.5225 53.7533C10.3304 53.6003 10.166 53.4034 10.0293 53.1625C9.89583 52.9184 9.79167 52.627 9.7168 52.2885C9.64518 51.9499 9.60938 51.5577 9.60938 51.1117V49.9496C9.60938 49.3897 9.66471 48.9177 9.77539 48.5336C9.88607 48.1462 10.0439 47.8321 10.249 47.5912C10.4541 47.3471 10.6982 47.1697 10.9814 47.059C11.2679 46.9483 11.5869 46.893 11.9385 46.893C12.2217 46.893 12.4821 46.9288 12.7197 47.0004C12.9606 47.0688 13.1755 47.1778 13.3643 47.3275C13.5563 47.4773 13.7191 47.6726 13.8525 47.9135C13.9893 48.1511 14.0934 48.4392 14.165 48.7777C14.2367 49.113 14.2725 49.5037 14.2725 49.9496ZM13.0957 51.2777V49.7738C13.0957 49.4906 13.0794 49.2416 13.0469 49.0268C13.0143 48.8087 12.9655 48.6247 12.9004 48.475C12.8385 48.322 12.7604 48.1983 12.666 48.1039C12.5716 48.0063 12.4642 47.9363 12.3438 47.894C12.2233 47.8484 12.0882 47.8256 11.9385 47.8256C11.7562 47.8256 11.5934 47.8614 11.4502 47.933C11.307 48.0014 11.1865 48.1121 11.0889 48.265C10.9912 48.418 10.9163 48.6199 10.8643 48.8705C10.8154 49.1179 10.791 49.419 10.791 49.7738V51.2777C10.791 51.5642 10.8073 51.8165 10.8398 52.0346C10.8724 52.2527 10.9212 52.4398 10.9863 52.5961C11.0514 52.7491 11.1296 52.876 11.2207 52.977C11.3151 53.0746 11.4225 53.1462 11.543 53.1918C11.6667 53.2374 11.8018 53.2602 11.9482 53.2602C12.1338 53.2602 12.2982 53.2244 12.4414 53.1527C12.5846 53.0811 12.7051 52.9672 12.8027 52.8109C12.9004 52.6514 12.9736 52.4447 13.0225 52.1908C13.0713 51.9369 13.0957 51.6326 13.0957 51.2777ZM16.5771 46.6V54.1H15.3955V46.6H16.5771ZM19.8584 48.8168L17.5586 51.3656L16.2988 52.6547L15.9912 51.6586L16.9434 50.4818L18.4375 48.8168H19.8584ZM18.6914 54.1L16.9775 51.6195L17.7197 50.7943L20.0537 54.1H18.6914Z" fill="#B3B3B3"/>
<path d="M4.87402 75.8943L3.93652 75.6648L4.32227 72.0906H8.15527V73.0867H5.29883L5.10352 74.8299C5.21419 74.7648 5.36719 74.7013 5.5625 74.6395C5.75781 74.5743 5.98079 74.5418 6.23145 74.5418C6.56673 74.5418 6.86621 74.5971 7.12988 74.7078C7.39681 74.8152 7.62305 74.9731 7.80859 75.1814C7.99414 75.3865 8.13574 75.6372 8.2334 75.9334C8.33105 76.2264 8.37988 76.5568 8.37988 76.9246C8.37988 77.2534 8.33105 77.561 8.2334 77.8475C8.139 78.1339 7.99577 78.3862 7.80371 78.6043C7.61165 78.8224 7.36914 78.9933 7.07617 79.117C6.78646 79.2374 6.44303 79.2977 6.0459 79.2977C5.74967 79.2977 5.46484 79.2553 5.19141 79.1707C4.92122 79.0828 4.67871 78.9542 4.46387 78.785C4.24902 78.6124 4.0765 78.4008 3.94629 78.1502C3.81608 77.8963 3.74121 77.6049 3.72168 77.2762H4.87402C4.90332 77.5073 4.9668 77.7042 5.06445 77.867C5.16536 78.0265 5.29883 78.1486 5.46484 78.2332C5.63086 78.3178 5.82292 78.3602 6.04102 78.3602C6.23958 78.3602 6.41048 78.326 6.55371 78.2576C6.69694 78.186 6.81576 78.0851 6.91016 77.9549C7.00781 77.8214 7.07943 77.6652 7.125 77.4861C7.17383 77.3071 7.19824 77.1085 7.19824 76.8904C7.19824 76.6821 7.17057 76.4917 7.11523 76.3191C7.06315 76.1466 6.9834 75.9969 6.87598 75.8699C6.77181 75.743 6.63997 75.6453 6.48047 75.577C6.32096 75.5053 6.13704 75.4695 5.92871 75.4695C5.64876 75.4695 5.43392 75.5102 5.28418 75.5916C5.1377 75.673 5.00098 75.7739 4.87402 75.8943ZM10.5771 71.7V79.2H9.39551V71.7H10.5771ZM13.8584 73.9168L11.5586 76.4656L10.2988 77.7547L9.99121 76.7586L10.9434 75.5818L12.4375 73.9168H13.8584ZM12.6914 79.2L10.9775 76.7195L11.7197 75.8943L14.0537 79.2H12.6914Z" fill="#B3B3B3"/>
<line x1="28" y1="0.75" x2="255" y2="0.75" stroke="#E4E4E4" stroke-width="0.5"/>
<line x1="28" y1="25.5" x2="255" y2="25.5" stroke="#E4E4E4" stroke-width="0.5"/>
<line x1="28" y1="50.25" x2="255" y2="50.25" stroke="#E4E4E4" stroke-width="0.5"/>
<line x1="28" y1="75" x2="255" y2="75" stroke="#E4E4E4" stroke-width="0.5"/>
<line x1="28" y1="99.75" x2="255" y2="99.75" stroke="#E4E4E4" stroke-width="0.5"/>
<rect x="29.5" y="68" width="8" height="32" fill="#FFE29B"/>
<rect x="41.5" y="63" width="8" height="37" fill="#FFE29B"/>
<rect x="53.5" y="57" width="8" height="43" fill="#FFE29B"/>
<rect x="65.5" y="54" width="8" height="46" fill="#FFE29B"/>
<rect x="77.5" y="57" width="8" height="43" fill="#FFE29B"/>
<rect x="89.5" y="52" width="8" height="48" fill="#FFE29B"/>
<rect x="101.5" y="48" width="8" height="52" fill="#FFE29B"/>
<rect x="113.5" y="43" width="8" height="57" fill="#FFE29B"/>
<rect x="125.5" y="34" width="8" height="66" fill="#FFE29B"/>
<rect x="137.5" y="38" width="8" height="62" fill="#FFE29B"/>
<rect x="149.5" y="45" width="8" height="55" fill="#FFE29B"/>
<rect x="161.5" y="41" width="8" height="59" fill="#FFE29B"/>
<rect x="173.5" y="43" width="8" height="57" fill="#FFE29B"/>
<rect x="185.5" y="45" width="8" height="55" fill="#FFE29B"/>
<rect x="197.5" y="45" width="8" height="55" fill="#FFE29B"/>
<rect x="209.5" y="43" width="8" height="57" fill="#FFE29B"/>
<rect x="221.5" y="48" width="8" height="52" fill="#FFE29B"/>
<rect x="233.5" y="52" width="8" height="48" fill="#FFE29B"/>
<rect x="245.5" y="61" width="8" height="39" fill="#FFE29B"/>
</svg>
