<svg width="40" height="40" viewBox="0 0 40 40" fill="none" xmlns="http://www.w3.org/2000/svg">
<rect width="40" height="40" rx="8" fill="#D8EEFF"/>
<path d="M11.977 17.84C12.0172 17.3388 12.2448 16.8711 12.6143 16.5302C12.9838 16.1892 13.4682 15.9999 13.971 16H26.029C26.5318 15.9999 27.0162 16.1892 27.3857 16.5302C27.7553 16.8711 27.9828 17.3388 28.023 17.84L28.826 27.84C28.8481 28.1152 28.813 28.392 28.7228 28.6529C28.6327 28.9139 28.4895 29.1533 28.3023 29.3562C28.1151 29.5592 27.8879 29.7211 27.635 29.8319C27.3822 29.9427 27.1091 29.9999 26.833 30H13.167C12.8909 29.9999 12.6179 29.9427 12.365 29.8319C12.1121 29.7211 11.8849 29.5592 11.6977 29.3562C11.5105 29.1533 11.3673 28.9139 11.2772 28.6529C11.1871 28.392 11.1519 28.1152 11.174 27.84L11.977 17.84V17.84Z" stroke="#53B7FF" stroke-width="2" stroke-linecap="round" stroke-linejoin="round"/>
<path d="M24 19V14C24 12.9391 23.5786 11.9217 22.8284 11.1716C22.0783 10.4214 21.0609 10 20 10C18.9391 10 17.9217 10.4214 17.1716 11.1716C16.4214 11.9217 16 12.9391 16 14V19" stroke="#53B7FF" stroke-width="2" stroke-linecap="round" stroke-linejoin="round"/>
</svg>
