<svg width="16" height="21" viewBox="0 0 16 21" fill="none" xmlns="http://www.w3.org/2000/svg">
<path d="M6 4.96876C5.73479 4.96876 5.48043 5.07412 5.2929 5.26166C5.10536 5.44919 5 5.70355 5 5.96876L5 17.5588L2.71 15.2588C2.5217 15.0705 2.2663 14.9647 2 14.9647C1.7337 14.9647 1.47831 15.0705 1.29 15.2588C1.1017 15.4471 0.995911 15.7025 0.995911 15.9688C0.995911 16.2351 1.1017 16.4905 1.29 16.6788L5.29 20.6788C5.43063 20.8175 5.6092 20.9115 5.80319 20.9489C5.99718 20.9863 6.19789 20.9653 6.38 20.8888C6.56262 20.8137 6.71895 20.6863 6.82928 20.5226C6.93961 20.3589 6.99902 20.1662 7 19.9688L7 5.96876C7 5.70355 6.89465 5.44919 6.70711 5.26166C6.51957 5.07412 6.26522 4.96876 6 4.96876ZM9.62 1.04876C9.43738 1.12378 9.28106 1.25118 9.17072 1.4149C9.06039 1.57862 9.00099 1.77134 9 1.96876L9 15.9688C9 16.234 9.10536 16.4883 9.2929 16.6759C9.48043 16.8634 9.73479 16.9688 10 16.9688C10.2652 16.9688 10.5196 16.8634 10.7071 16.6759C10.8946 16.4883 11 16.234 11 15.9688L11 4.37876L13.29 6.67876C13.383 6.77249 13.4936 6.84689 13.6154 6.89766C13.7373 6.94842 13.868 6.97456 14 6.97456C14.132 6.97456 14.2627 6.94842 14.3846 6.89766C14.5064 6.84689 14.617 6.77249 14.71 6.67876C14.8037 6.5858 14.8781 6.4752 14.9289 6.35334C14.9797 6.23148 15.0058 6.10077 15.0058 5.96876C15.0058 5.83675 14.9797 5.70605 14.9289 5.58419C14.8781 5.46233 14.8037 5.35173 14.71 5.25876L10.71 1.25876C10.5694 1.12001 10.3908 1.02601 10.1968 0.988636C10.0028 0.951262 9.80211 0.972183 9.62 1.04876Z" fill="#B3B3B3"/>
</svg>
